<?xml version="1.0" encoding="UTF-8"?>
<svg version="1.1" xmlns="http://www.w3.org/2000/svg" width="204" height="200">
<path d="M0 0 C67.32 0 134.64 0 204 0 C204 66 204 132 204 200 C136.68 200 69.36 200 0 200 C0 134 0 68 0 0 Z " fill="#FDFDFD" transform="translate(0,0)"/>
<path d="M0 0 C2.56780565 1.12190379 4.65221256 2.43480837 7 4 C7 4.66 7 5.32 7 6 C8.03125 6.2475 9.0625 6.495 10.125 6.75 C13.93274148 7.8357104 16.86402115 9.55240675 20 12 C20 12.66 20 13.32 20 14 C20.7425 14.12375 21.485 14.2475 22.25 14.375 C24.80141485 14.95486701 26.7267573 15.73708739 29 17 C29 17.66 29 18.32 29 19 C29.556875 19.103125 30.11375 19.20625 30.6875 19.3125 C35.26274938 20.67270927 39.19592495 23.74775089 43.1875 26.3125 C49.6847292 30.45743491 56.23319458 34.49651523 63 38.1875 C66 40 66 40 68 43 C68.4651189 48.02328411 67.99810976 50.92257073 65 55 C64 56 64 56 60.875 56.25 C56.40876291 55.96185567 53.93932626 55.04844965 50 53 C49.67 52.34 49.34 51.68 49 51 C47.28579179 50.01740598 47.28579179 50.01740598 45.25 49.125 C42.64022735 47.87805712 40.7146163 46.77030093 38.4375 44.9375 C35.49352406 42.59741656 32.45836139 41.45615217 29 40 C26.98817543 38.68457624 24.98600337 37.3540932 23 36 C22.01 35.67 21.02 35.34 20 35 C20 34.34 20 33.68 20 33 C19.34 32.7525 18.68 32.505 18 32.25 C15.54245398 31.22602249 13.14697834 30.15537805 10.75 29 C10.06421875 28.67 9.3784375 28.34 8.671875 28 C7 27 7 27 6 25 C4.0282696 23.94535351 2.02237052 22.95394836 0 22 C-5.88888889 19.22222222 -5.88888889 19.22222222 -7 17 C-7.639375 16.71125 -8.27875 16.4225 -8.9375 16.125 C-11.56462886 14.69202062 -12.14790157 13.86614926 -13 11 C-12.86470518 7.21174497 -12.49240979 4.76815927 -10.4375 1.5625 C-6.99131581 -0.64659243 -3.91665688 -0.75571858 0 0 Z " fill="#0A0A0A" transform="translate(61,30)"/>
<path d="M0 0 C3 1.0625 3 1.0625 5 2 C5 2.66 5 3.32 5 4 C6.06734375 4.40605469 6.06734375 4.40605469 7.15625 4.8203125 C10.04677952 6.01940579 12.74947803 7.38384624 15.5 8.875 C16.4178125 9.36742188 17.335625 9.85984375 18.28125 10.3671875 C21 12 21 12 23.453125 14.00390625 C27.13181939 16.88705477 31.22471383 18.59111843 35.453125 20.53515625 C38 22 38 22 39 25 C39.78375 25.144375 40.5675 25.28875 41.375 25.4375 C44 26 44 26 46 27 C46 27.66 46 28.32 46 29 C47.2065625 29.309375 47.2065625 29.309375 48.4375 29.625 C52.370081 31.14283828 55.43544148 33.15576918 58.8828125 35.546875 C61.09441414 37.10631964 61.09441414 37.10631964 63.9375 38.6875 C66 40 66 40 68 43 C68.4516129 49.32258065 68.4516129 49.32258065 66 53 C61.97805542 54.63857002 57.16879758 54.77457056 53.0859375 53.31640625 C48.47697523 51.10373711 44.31202251 48.25985842 40.09765625 45.3828125 C37.50106277 43.67109166 34.81633768 42.31429092 32 41 C30 40 28 39 26 38 C26 37.34 26 36.68 26 36 C25.113125 35.731875 24.22625 35.46375 23.3125 35.1875 C19.19255449 33.7105384 16.075229 32.14459861 13.0625 28.9375 C10.55855614 26.58531032 8.28147168 25.89494682 5 25 C5 24.34 5 23.68 5 23 C4.175 22.773125 3.35 22.54625 2.5 22.3125 C-1.08997803 20.96625824 -3.98796756 19.31689819 -7.16796875 17.20703125 C-9.05588223 15.91566979 -9.05588223 15.91566979 -11.4375 14.75 C-13.75813363 12.15089033 -13.9261132 9.57228627 -14.17578125 6.16015625 C-14 4 -14 4 -12.1875 1.5 C-7.95680904 -1.40104523 -4.90263573 -0.93740645 0 0 Z " fill="#090909" transform="translate(89,117)"/>
<path d="M0 0 C1.33998047 0.06960937 1.33998047 0.06960937 2.70703125 0.140625 C3.60808594 0.17671875 4.50914063 0.2128125 5.4375 0.25 C6.46810547 0.31960937 6.46810547 0.31960937 7.51953125 0.390625 C7.51953125 1.050625 7.51953125 1.710625 7.51953125 2.390625 C8.15890625 2.6175 8.79828125 2.844375 9.45703125 3.078125 C13.65582501 4.87760804 17.55538723 7.12829409 21.51953125 9.390625 C22.22464844 9.79152344 22.92976563 10.19242188 23.65625 10.60546875 C25.27923787 11.53053891 26.89968052 12.46007245 28.51953125 13.390625 C28.51953125 14.050625 28.51953125 14.710625 28.51953125 15.390625 C30.49953125 16.050625 32.47953125 16.710625 34.51953125 17.390625 C34.51953125 18.050625 34.51953125 18.710625 34.51953125 19.390625 C36.49953125 19.720625 38.47953125 20.050625 40.51953125 20.390625 C41.01453125 21.875625 41.01453125 21.875625 41.51953125 23.390625 C43.17157581 24.09274394 44.83876894 24.76033913 46.51953125 25.390625 C48.03171795 28.41499839 47.69216494 31.05304034 47.51953125 34.390625 C46.51953125 36.828125 46.51953125 36.828125 45.51953125 38.390625 C44.52953125 38.390625 43.53953125 38.390625 42.51953125 38.390625 C42.51953125 39.050625 42.51953125 39.710625 42.51953125 40.390625 C36.86341662 40.95623646 33.29310997 39.10453778 28.51953125 36.390625 C28.51953125 35.730625 28.51953125 35.070625 28.51953125 34.390625 C26.81796875 33.9575 26.81796875 33.9575 25.08203125 33.515625 C23.90640625 33.144375 22.73078125 32.773125 21.51953125 32.390625 C21.18953125 31.730625 20.85953125 31.070625 20.51953125 30.390625 C18.72106652 29.49139264 16.92011021 28.59691719 15.109375 27.72265625 C11.93857134 26.09182058 8.87974077 24.30024787 5.83203125 22.453125 C4.75566406 21.80472656 3.67929688 21.15632813 2.5703125 20.48828125 C-4.99439896 15.28693675 -4.99439896 15.28693675 -6.07421875 11.07421875 C-6.04328125 10.33300781 -6.01234375 9.59179688 -5.98046875 8.828125 C-5.97015625 8.08433594 -5.95984375 7.34054688 -5.94921875 6.57421875 C-5.1416623 2.8123516 -3.93539692 0.61974755 0 0 Z " fill="#0C0C0C" transform="translate(81.48046875,80.609375)"/>
<path d="M0 0 C0 0.66 0 1.32 0 2 C0.680625 2.103125 1.36125 2.20625 2.0625 2.3125 C5.68459539 3.16022445 8.71863099 4.233109 12 6 C12.9375 8.6875 12.9375 8.6875 13 11 C12.360625 11.103125 11.72125 11.20625 11.0625 11.3125 C10.381875 11.539375 9.70125 11.76625 9 12 C8.67 12.99 8.34 13.98 8 15 C6.31847038 15.75833689 4.63100169 16.50756506 2.91015625 17.171875 C0.68879986 18.06596352 0.68879986 18.06596352 -2.25 20.1875 C-5 22 -5 22 -8 22 C-8.33 22.99 -8.66 23.98 -9 25 C-9.66 25 -10.32 25 -11 25 C-11 25.66 -11 26.32 -11 27 C-14.65288193 28.21762731 -17.15754136 28.39075851 -21 28 C-24.375 25.9375 -24.375 25.9375 -27 23 C-27.875 19.1875 -27.875 19.1875 -28 16 C-27.34 16 -26.68 16 -26 16 C-25.67 14.68 -25.34 13.36 -25 12 C-24.360625 11.896875 -23.72125 11.79375 -23.0625 11.6875 C-22.0415625 11.3471875 -22.0415625 11.3471875 -21 11 C-20.67 10.01 -20.34 9.02 -20 8 C-18.0390625 6.61328125 -18.0390625 6.61328125 -15.625 5.3125 C-14.83351563 4.87550781 -14.04203125 4.43851563 -13.2265625 3.98828125 C-11 3 -11 3 -8 3 C-8 2.34 -8 1.68 -8 1 C-4.93251126 -0.86240388 -3.40254489 -1.2151946 0 0 Z " fill="#141414" transform="translate(76,144)"/>
<path d="M0 0 C0.495 1.485 0.495 1.485 1 3 C1.99 3 2.98 3 4 3 C5.49498913 5.98997825 5.11577446 8.70042775 5 12 C3.68989523 15.9303143 2.25624049 16.17008353 -1.375 18 C-4.79592531 19.73302813 -7.34208594 21.26321609 -10 24 C-12.6875 24.6875 -12.6875 24.6875 -15 25 C-15.33 25.99 -15.66 26.98 -16 28 C-22.75 28.125 -22.75 28.125 -25 27 C-25 26.34 -25 25.68 -25 25 C-25.763125 24.855625 -26.52625 24.71125 -27.3125 24.5625 C-30 24 -30 24 -33 23 C-33.33 22.34 -33.66 21.68 -34 21 C-34.99 20.67 -35.98 20.34 -37 20 C-35.56356879 16.34646845 -33.94164969 15.06021834 -30.5 13.25 C-29.7059375 12.82203125 -28.911875 12.3940625 -28.09375 11.953125 C-26 11 -26 11 -24 11 C-24 10.34 -24 9.68 -24 9 C-21.03 8.01 -18.06 7.02 -15 6 C-15 5.34 -15 4.68 -15 4 C-9.60931587 0.40621058 -6.46326465 -0.45356243 0 0 Z " fill="#111111" transform="translate(152,30)"/>
<path d="M0 0 C0.66 0.66 1.32 1.32 2 2 C0.7625 2.0825 -0.475 2.165 -1.75 2.25 C-4.70588266 2.6319105 -5.92403793 2.94741088 -8.4375 4.6875 C-10.31457921 7.46557723 -10.69892456 9.6881702 -11 13 C-11.66 12.34 -12.32 11.68 -13 11 C-12.86119636 7.2523018 -12.47382932 4.73917374 -10.4375 1.5625 C-6.78082342 -0.78152345 -4.30264367 -0.41638487 0 0 Z " fill="#5E5E5E" transform="translate(61,30)"/>
<path d="M0 0 C2 1.5625 2 1.5625 4 4 C4.46337203 8.40203429 4.48038907 10.2794164 2 14 C1.34 14 0.68 14 0 14 C0.08378906 13.24074219 0.16757813 12.48148438 0.25390625 11.69921875 C0.35574219 10.70535156 0.45757812 9.71148437 0.5625 8.6875 C0.66691406 7.70136719 0.77132812 6.71523437 0.87890625 5.69921875 C1.16602527 2.90069653 1.16602527 2.90069653 0 0 Z " fill="#4E4E4E" transform="translate(153,156)"/>
<path d="M0 0 C-1.15173355 2.46800047 -2.04783565 4.04783565 -4 6 C-4.69748583 7.31747324 -5.36959957 8.64914193 -6 10 C-6.33663062 6.29706315 -6.47736015 4.60465619 -4.125 1.625 C-2 0 -2 0 0 0 Z " fill="#424242" transform="translate(81,117)"/>
<path d="M0 0 C0.66 0.33 1.32 0.66 2 1 C-2.5 5 -2.5 5 -7 5 C-7 4.34 -7 3.68 -7 3 C-4.69631264 1.93347808 -2.35981813 0.93578995 0 0 Z " fill="#414141" transform="translate(135,36)"/>
</svg>
